<?xml version="1.0" encoding="UTF-8" standalone="no"?>
<!-- Created with Inkscape (http://www.inkscape.org/) -->

<svg
   xmlns:dc="http://purl.org/dc/elements/1.1/"
   xmlns:cc="http://creativecommons.org/ns#"
   xmlns:rdf="http://www.w3.org/1999/02/22-rdf-syntax-ns#"
   xmlns:svg="http://www.w3.org/2000/svg"
   xmlns="http://www.w3.org/2000/svg"
   xmlns:sodipodi="http://sodipodi.sourceforge.net/DTD/sodipodi-0.dtd"
   xmlns:inkscape="http://www.inkscape.org/namespaces/inkscape"
   width="511.23532mm"
   height="167.44614mm"
   viewBox="0 0 511.2353 167.44614"
   version="1.1"
   id="svg8"
   sodipodi:docname="perfsonar-powered.svg"
   inkscape:version="0.91 r13725">
  <defs
     id="defs2" />
  <sodipodi:namedview
     id="base"
     pagecolor="#ffffff"
     bordercolor="#666666"
     borderopacity="1.0"
     inkscape:pageopacity="0.0"
     inkscape:pageshadow="2"
     inkscape:zoom="0.57216797"
     inkscape:cx="915.62966"
     inkscape:cy="77.441274"
     inkscape:document-units="mm"
     inkscape:current-layer="svg8"
     showgrid="false"
     showguides="false"
     inkscape:guide-bbox="true"
     inkscape:window-width="1488"
     inkscape:window-height="883"
     inkscape:window-x="72"
     inkscape:window-y="22"
     inkscape:window-maximized="0"
     fit-margin-top="15"
     fit-margin-left="15"
     fit-margin-right="15"
     fit-margin-bottom="15"
     inkscape:pagecheckerboard="false"
     showborder="true">
    <inkscape:grid
       type="xygrid"
       id="grid3713"
       units="mm"
       spacingx="0.5"
       spacingy="0.5"
       originx="193.77906"
       originy="9.9461689" />
    <sodipodi:guide
       position="295.17725,76.958873"
       orientation="0,1"
       id="guide4653"
       inkscape:locked="false" />
    <sodipodi:guide
       position="291.43547,142.94104"
       orientation="0,1"
       id="guide6453"
       inkscape:locked="false" />
    <sodipodi:guide
       position="288.77907,67.446169"
       orientation="0,1"
       id="guide6455"
       inkscape:locked="false" />
  </sodipodi:namedview>
  <metadata
     id="metadata5">
    <rdf:RDF>
      <cc:Work
         rdf:about="">
        <dc:format>image/svg+xml</dc:format>
        <dc:type
           rdf:resource="http://purl.org/dc/dcmitype/StillImage" />
        <dc:title />
      </cc:Work>
    </rdf:RDF>
  </metadata>
  <g
     inkscape:groupmode="layer"
     id="layer4"
     inkscape:label="Crosshair Fill"
     style="display:inline">
    <circle
       transform="translate(193.77909,-139.5)"
       style="display:inline;opacity:1;fill:#31b63f;fill-opacity:1;fill-rule:nonzero;stroke:none;stroke-width:6;stroke-linecap:square;stroke-linejoin:miter;stroke-miterlimit:4;stroke-dasharray:none;stroke-dashoffset:0;stroke-opacity:1"
       id="path3715-3"
       cy="197.01413"
       cx="82.479416"
       r="30.000002" />
  </g>
  <g
     inkscape:label="Crosshair"
     inkscape:groupmode="layer"
     id="layer1"
     transform="translate(193.77909,-139.5)"
     style="display:inline">
    <circle
       style="opacity:1;fill:none;fill-opacity:1;fill-rule:nonzero;stroke:#000000;stroke-width:6;stroke-linecap:square;stroke-linejoin:miter;stroke-miterlimit:4;stroke-dasharray:none;stroke-dashoffset:0;stroke-opacity:1"
       id="path3715"
       cy="197"
       cx="82.5"
       r="30" />
    <path
       style="fill:none;fill-rule:evenodd;stroke:#000000;stroke-width:3;stroke-linecap:butt;stroke-linejoin:miter;stroke-miterlimit:4;stroke-dasharray:none;stroke-opacity:1"
       d="m 107.5,197 -50,0"
       id="path4522"
       inkscape:connector-curvature="0"
       sodipodi:nodetypes="cc" />
    <path
       style="fill:none;fill-rule:evenodd;stroke:#000000;stroke-width:3;stroke-linecap:butt;stroke-linejoin:miter;stroke-miterlimit:4;stroke-dasharray:none;stroke-opacity:1"
       d="m 82.5,222 0,-50"
       id="path4522-6"
       inkscape:connector-curvature="0"
       sodipodi:nodetypes="cc" />
    <path
       style="fill:none;fill-rule:evenodd;stroke:#000000;stroke-width:3;stroke-linecap:butt;stroke-linejoin:miter;stroke-miterlimit:4;stroke-dasharray:none;stroke-opacity:1"
       d="m 82.5,239.5 0,-7.5"
       id="path4522-6-7"
       inkscape:connector-curvature="0"
       sodipodi:nodetypes="cc" />
    <path
       style="fill:none;fill-rule:evenodd;stroke:#000000;stroke-width:3;stroke-linecap:butt;stroke-linejoin:miter;stroke-miterlimit:4;stroke-dasharray:none;stroke-opacity:1"
       d="m 82.5,162 0,-7.5"
       id="path4522-6-7-3"
       inkscape:connector-curvature="0"
       sodipodi:nodetypes="cc" />
    <path
       style="fill:none;fill-rule:evenodd;stroke:#000000;stroke-width:3;stroke-linecap:butt;stroke-linejoin:miter;stroke-miterlimit:4;stroke-dasharray:none;stroke-opacity:1"
       d="m 40,197 7.5,0"
       id="path4522-6-7-3-5"
       inkscape:connector-curvature="0"
       sodipodi:nodetypes="cc" />
    <path
       style="fill:none;fill-rule:evenodd;stroke:#000000;stroke-width:3;stroke-linecap:butt;stroke-linejoin:miter;stroke-miterlimit:4;stroke-dasharray:none;stroke-opacity:1"
       d="m 117.5,197 7.5,0"
       id="path4522-6-7-3-5-6"
       inkscape:connector-curvature="0"
       sodipodi:nodetypes="cc" />
  </g>
  <g
     inkscape:groupmode="layer"
     id="layer3"
     inkscape:label="Text"
     style="display:inline">
    <text
       transform="translate(193.77909,-139.5)"
       xml:space="preserve"
       style="font-style:normal;font-variant:normal;font-weight:normal;font-stretch:normal;font-size:88.90000153px;line-height:125%;font-family:sans-serif;-inkscape-font-specification:'sans-serif, Normal';text-align:start;letter-spacing:0px;word-spacing:0px;writing-mode:lr-tb;text-anchor:start;display:inline;fill:#000000;fill-opacity:1;stroke:none;stroke-width:0.26458332px;stroke-linecap:butt;stroke-linejoin:miter;stroke-opacity:1"
       x="118.66129"
       y="229.78903"
       id="text4651"
       sodipodi:linespacing="125%"><tspan
         sodipodi:role="line"
         id="tspan4649"
         x="118.66129"
         y="229.78903"
         style="font-style:normal;font-variant:normal;font-weight:normal;font-stretch:normal;font-size:88.90000153px;font-family:'DejaVu Sans';-inkscape-font-specification:'DejaVu Sans, Normal';text-align:start;writing-mode:lr-tb;text-anchor:start;stroke-width:0.26458332px"
         dx="0 -1.6036172 -1.6036172">NAR</tspan></text>
    <path
       transform="translate(193.77909,-139.5)"
       style="font-style:normal;font-variant:normal;font-weight:normal;font-stretch:normal;font-size:88.90000153px;line-height:125%;font-family:'DejaVu Sans';-inkscape-font-specification:'DejaVu Sans, Normal';text-align:end;letter-spacing:0px;word-spacing:0px;writing-mode:lr-tb;text-anchor:end;display:inline;fill:#000000;fill-opacity:1;stroke:none;stroke-width:0.26458332px;stroke-linecap:butt;stroke-linejoin:miter;stroke-opacity:1"
       d="m -170.92221,221.35003 c 0,8.59482 0,17.18965 0,25.78447 -2.49272,-0.33946 -6.32601,0.66166 -8.03051,-0.46601 0,-22.21436 0,-44.42871 0,-66.64307 2.49271,0.33946 6.32601,-0.66166 8.03051,0.46602 0.0878,3.97807 -0.89546,9.82022 2.84324,3.13686 8.26417,-8.22727 23.89593,-5.49896 28.95327,5.04994 5.77888,11.35958 5.3087,27.23196 -4.07308,36.5809 -7.73009,7.399 -22.68571,6.00656 -27.72343,-3.90911 z m 27.17354,-16.97261 c 0.48698,-8.28938 -3.83772,-19.15933 -13.58677,-18.83916 -9.77449,-0.33569 -14.08875,10.53556 -13.58677,18.83916 -0.50081,8.3083 3.78801,19.1998 13.58677,18.83916 9.95609,0.37353 13.92223,-10.53837 13.58677,-18.83916 z m 58.304674,-2.04018 c 1.101711,3.95735 -1.268246,4.44303 -4.660181,3.90674 -10.687723,0 -21.375443,0 -32.063163,0 -0.31112,9.43157 7.71768,17.86708 17.36329,16.88579 5.732166,1.47078 14.715664,-4.74066 17.493501,-3.1164 0.626917,4.36721 0.03543,8.10484 -5.456547,8.09478 -11.589934,3.50568 -26.894424,2.63327 -33.925544,-8.66265 -6.97833,-11.99392 -4.81617,-30.69268 8.09495,-37.84518 10.441,-5.62217 26.146883,-2.91071 30.915458,8.95227 1.65048,3.68843 2.238125,7.76908 2.238236,11.78465 z m -7.98711,-2.34405 c 0.888104,-9.45455 -8.841134,-17.01015 -17.793974,-13.83704 -5.67416,-0.28576 -15.00977,13.27598 -7.8857,13.87619 8.55989,-0.013 17.11978,-0.0261 25.679674,-0.0392 z m 44.283829,-12.50156 c -9.010179,-5.12424 -20.831837,2.21711 -20.3186,12.58312 -0.277173,9.51592 -0.05548,19.0461 -0.126664,28.56786 -2.492718,-0.33946 -6.326015,0.66166 -8.030518,-0.46602 0,-16.05039 0,-32.10078 0,-48.15117 2.492719,0.33946 6.326016,-0.66166 8.030518,0.46602 0.310707,2.75247 -1.143762,10.55214 2.101907,4.08981 3.780664,-4.79378 14.803753,-8.23831 18.307346,-3.89573 0.012,2.2687 0.02401,4.53741 0.03601,6.80611 z m 35.749747,-26.39219 c -0.705221,2.12996 1.724997,7.39535 -1.864073,6.64146 -4.491595,0.32241 -11.351432,-1.49517 -13.003237,4.16719 0.270131,2.60472 -2.592595,9.56572 2.38373,8.11733 3.452193,0 6.904385,0 10.356578,0 -0.562165,2.28366 1.659821,7.35146 -2.330091,6.20737 -3.607531,0 -7.215063,0 -10.822595,0 0,14.13661 0,28.27321 0,42.40982 -2.492718,-0.33946 -6.326015,0.66166 -8.030518,-0.46602 0,-13.98127 0,-27.96253 0,-41.9438 -2.268661,-0.58863 -6.916677,1.20209 -7.639844,-0.93203 -0.0236,-2.86942 -0.934197,-6.62584 3.262127,-5.27534 3.812394,0.88302 5.186143,-0.63626 4.392469,-4.38321 -1.039011,-9.40259 7.908698,-15.88773 16.674462,-14.54277 2.206998,0 4.413995,0 6.620992,0 z m 47.081769,4.86172 c 0,2.85047 0,5.70095 0,8.55142 -9.045436,-4.30325 -21.09754,-7.61729 -29.9455566,-1.22221 -6.8113908,6.16934 -1.1005761,17.15833 7.6839306,16.84713 9.369585,1.88674 21.09174,3.27448 24.996343,13.52369 3.34761,8.88704 -0.08107,20.69824 -9.67596,23.94233 -11.15903,4.16112 -23.6131582,2.20956 -34.5135919,-1.82585 0,-3.00964 0,-6.01927 0,-9.02891 9.4725295,5.29819 22.1046739,8.95411 32.1220709,3.08198 7.051319,-4.82222 4.543804,-17.17818 -3.982024,-18.72589 -9.250075,-2.89768 -21.26650865,-2.40616 -26.6879068,-11.94404 -4.7297942,-9.35107 0.1590758,-22.13529 10.5110592,-24.93292 9.6184026,-3.03813 20.0989366,-1.29453 29.4916356,1.73327 z"
       id="text4651-0"
       inkscape:connector-curvature="0" />
  </g>
  <g
     inkscape:groupmode="layer"
     id="layer2"
     inkscape:label="Powered"
     style="display:inline"
     transform="translate(8.9310832,14.999994)">
    <text
       xml:space="preserve"
       style="font-style:normal;font-variant:normal;font-weight:normal;font-stretch:normal;font-size:70.55555725px;line-height:125%;font-family:sans-serif;-inkscape-font-specification:'sans-serif, Normal';text-align:start;letter-spacing:0px;word-spacing:0px;writing-mode:lr-tb;text-anchor:start;fill:#000000;fill-opacity:1;stroke:none;stroke-width:0.26458332px;stroke-linecap:butt;stroke-linejoin:miter;stroke-opacity:1"
       x="261.10617"
       y="126.18223"
       id="text4651-0-4"
       sodipodi:linespacing="125%"><tspan
         style="font-style:normal;font-variant:normal;font-weight:normal;font-stretch:normal;font-size:54.15139008px;font-family:'DejaVu Sans';-inkscape-font-specification:'DejaVu Sans, Normal';text-align:start;writing-mode:lr-tb;text-anchor:start;stroke-width:0.26458332px"
         y="126.18223"
         x="261.10617"
         sodipodi:role="line"
         id="tspan4684-1"
         dx="0 -0.75595242 -1.7008929 -0.37797618">powered</tspan></text>
  </g>
</svg>
